# xmcd
#
# Track frame offsets: 
#        150
#        19785
#        38082
#        47122
#        58752
#        71425
#        88870
#        106870
#        120935
#        137135
#        154265
#        172135
#
# Disc length: 2574 seconds
#
# Revision: 0
# Processed by: cddbd v1.5.1PL0 Copyright (c) Steve Scherf et al.
# Submitted via: ExactAudioCopy v0.95a3
#
DISCID=a00a0c0c
DTITLE=Дмитрий Харатьян - Склонность К Дождю
DYEAR=1995
DGENRE=Pop
TTITLE0=Свобода Выбора
TTITLE1=Обыкновенный Клоун
TTITLE2=Городской Романс
TTITLE3=Мистерия
TTITLE4=Супермен
TTITLE5=Склонность К Дождю
TTITLE6=Река Забвения
TTITLE7=Любовь Углекопа
TTITLE8=Упал Закат...
TTITLE9=Белое Безмолвие
TTITLE10=Старый Паровоз
TTITLE11=В Ожидании Дождя
EXTD=
EXTT0=
EXTT1=
EXTT2=
EXTT3=
EXTT4=
EXTT5=
EXTT6=
EXTT7=
EXTT8=
EXTT9=
EXTT10=
EXTT11=
PLAYORDER=
